<svg width="400" height="400" viewBox="0 0 400 400" fill="none" xmlns="http://www.w3.org/2000/svg">
<path d="M102.419 122.314L298.735 271.568" stroke="#FC6D26" stroke-width="12"/>
<path d="M112.919 262.705L290.752 127.503" stroke="#E24329" stroke-width="12"/>
<path d="M200 227.529L200 279.529" stroke="#E24329" stroke-width="12"/>
<path d="M94.4706 300.941C107.985 300.941 118.941 289.985 118.941 276.471C118.941 262.956 107.985 252 94.4706 252C80.9558 252 70 262.956 70 276.471C70 289.985 80.9558 300.941 94.4706 300.941Z" stroke="#FC6D26" stroke-width="12" stroke-miterlimit="10"/>
<path d="M305.412 138.823C317.237 138.823 326.823 129.237 326.823 117.412C326.823 105.586 317.237 96 305.412 96C293.586 96 284 105.586 284 117.412C284 129.237 293.586 138.823 305.412 138.823Z" stroke="#FC6D26" stroke-width="12" stroke-miterlimit="10"/>
<path d="M105.075 123.506C101.713 129.374 94.2552 131.33 88.3258 127.968C82.5187 124.606 80.5015 117.149 83.8635 111.28C87.2255 105.412 94.7442 103.456 100.612 106.818C106.481 110.18 108.498 117.638 105.075 123.506Z" stroke="#E24329" stroke-width="12" stroke-miterlimit="10"/>
<path d="M308.588 288.706C315.346 288.706 320.824 283.228 320.824 276.47C320.824 269.713 315.346 264.235 308.588 264.235C301.831 264.235 296.353 269.713 296.353 276.47C296.353 283.228 301.831 288.706 308.588 288.706Z" stroke="#E24329" stroke-width="12" stroke-miterlimit="10"/>
<path d="M200.294 310.588C208.741 310.588 215.588 303.741 215.588 295.294C215.588 286.847 208.741 280 200.294 280C191.847 280 185 286.847 185 295.294C185 303.741 191.847 310.588 200.294 310.588Z" stroke="#FCA326" stroke-width="12" stroke-miterlimit="10"/>
<path d="M265.994 154.329L265.806 153.842L247.16 105.203C246.787 104.245 246.116 103.433 245.246 102.887C244.377 102.331 243.354 102.065 242.324 102.126C241.293 102.176 240.304 102.553 239.501 103.201C238.698 103.849 238.121 104.735 237.855 105.733L225.293 144.229H174.364L161.751 105.733C161.482 104.741 160.904 103.862 160.102 103.22C159.295 102.581 158.308 102.207 157.28 102.152C156.251 102.097 155.231 102.363 154.36 102.913C153.492 103.462 152.821 104.273 152.445 105.228L133.808 153.842L133.62 154.329C130.937 161.341 130.606 169.036 132.678 176.252C134.749 183.469 139.111 189.816 145.105 194.338L145.165 194.38L145.336 194.508L173.732 215.769L187.78 226.399L196.325 232.859C197.327 233.62 198.55 234.031 199.807 234.031C201.065 234.031 202.288 233.62 203.289 232.859L211.835 226.399L225.883 215.769L254.441 194.406L254.518 194.355C260.513 189.83 264.874 183.479 266.944 176.26C269.015 169.04 268.681 161.343 265.994 154.329V154.329Z" fill="#FCA326"/>
</svg>
